<?xml version="1.0" encoding="UTF-8"?>
<!DOCTYPE svg PUBLIC "-//W3C//DTD SVG 1.1//EN" "http://www.w3.org/Graphics/SVG/1.1/DTD/svg11.dtd">
<!-- Creator: CorelDRAW X6 -->
<svg xmlns="http://www.w3.org/2000/svg" xml:space="preserve" width="297mm" height="210mm" version="1.1" style="shape-rendering:geometricPrecision; text-rendering:geometricPrecision; image-rendering:optimizeQuality; fill-rule:evenodd; clip-rule:evenodd"
viewBox="0 0 29700 21000"
 xmlns:xlink="http://www.w3.org/1999/xlink">
 <defs>
  <style type="text/css">
   <![CDATA[
    .str0 {stroke:#2B2A29;stroke-width:7.62}
    .fil3 {fill:none}
    .fil2 {fill:none;fill-rule:nonzero}
    .fil1 {fill:#2B2A29}
    .fil0 {fill:#2B2A29;fill-rule:nonzero}
   ]]>
  </style>
 </defs>
 <g id="Réteg_x0020_1">
  <metadata id="CorelCorpID_0Corel-Layer"/>
  <g id="_238197840">
   <path class="fil0" d="M12431 7438c70,-10 112,-14 182,-16 -85,142 -184,283 -274,377 -71,-21 -137,-37 -190,-37 -79,0 -108,34 -108,73 0,50 47,112 128,112 57,0 117,-29 180,-78 122,56 255,125 353,126 67,0 117,-32 148,-119 -30,15 -61,22 -100,22 -95,0 -223,-41 -343,-79 105,-101 213,-248 306,-399 126,-3 154,-4 185,-49 -43,0 -92,-7 -148,-13 77,-133 142,-262 182,-358 21,-11 44,-27 71,-49 -14,2 -27,2 -45,2 -147,0 -289,-90 -485,-90 -167,0 -271,64 -271,189 0,56 21,91 76,101 -5,-14 -6,-27 -6,-49 0,-155 69,-202 159,-202 125,0 295,92 389,116 -31,81 -91,203 -164,332 -21,-2 -42,-3 -63,-3 -112,-1 -205,19 -209,98l47 -7zm-268 471c-52,0 -86,-46 -86,-77 0,-18 12,-34 52,-33 44,0 101,19 163,45 -48,40 -93,65 -129,65z"/>
   <path id="1" class="fil0" d="M12921 7759c0,84 43,184 175,184 80,0 150,-36 180,-116 84,-12 161,-64 196,-166l-12 -14c-55,105 -113,147 -177,158 6,-21 8,-44 8,-69 1,-129 -72,-245 -72,-338 0,-32 9,-52 9,-62 0,-9 -7,-18 -23,-18 -26,0 -54,27 -55,95l0 17c-35,74 -83,142 -139,203 -15,17 -89,16 -90,126zm279 -22c0,28 -3,48 -6,66 -85,-18 -145,-77 -173,-138 42,-41 93,-110 136,-182 14,78 44,166 43,254zm-101 157c-73,0 -115,-69 -115,-136 0,-30 9,-48 31,-49 30,48 94,101 172,117 -21,61 -65,68 -88,68z"/>
   <path id="2" class="fil0" d="M13822 7492c-54,105 -169,366 -256,366 -46,-1 -50,-71 -50,-94 0,-94 63,-234 94,-282 -15,-17 -42,-28 -52,-28 -42,0 -123,211 -124,318 0,76 42,141 105,142 70,0 132,-81 184,-174 -5,24 -10,48 -10,70 0,58 24,104 98,104 100,0 222,-105 282,-256l-18 -12c-69,144 -175,226 -234,226 -34,0 -47,-22 -47,-56 1,-94 95,-272 95,-287 0,-24 -52,-34 -67,-37z"/>
   <path id="3" class="fil0" d="M14535 7662l-15 -17c-27,80 -86,145 -156,198 -17,-47 -49,-89 -98,-127 84,-42 165,-121 166,-224 0,-70 -53,-115 -117,-115 -127,0 -188,126 -250,293l17 14c65,-137 120,-254 214,-254 36,0 54,33 54,75 0,73 -55,178 -153,206 73,57 96,111 96,178 -162,107 -343,183 -343,303 -1,52 34,72 92,72 171,0 335,-179 336,-349 0,-15 -2,-32 -6,-46 74,-56 136,-123 163,-207zm-503 561c-25,0 -43,-14 -43,-46 0,-94 154,-161 303,-256 -19,193 -191,302 -260,302z"/>
   <path id="4" class="fil0" d="M14468 7759c-1,84 42,184 174,184 80,0 150,-36 180,-116 84,-12 161,-64 196,-166l-12 -14c-55,105 -112,147 -177,158 6,-21 9,-44 9,-69 0,-129 -73,-245 -73,-338 0,-32 9,-52 9,-61 0,-10 -7,-19 -23,-19 -26,0 -54,27 -55,95l0 17c-35,75 -82,142 -139,203 -15,17 -89,16 -89,126zm278 -22c0,28 -2,48 -5,66 -86,-18 -146,-77 -174,-138 42,-41 93,-110 137,-182 13,78 43,166 42,254zm-101 157c-73,0 -115,-69 -114,-136 0,-29 8,-48 30,-49 30,48 94,101 173,117 -21,61 -66,68 -89,68z"/>
   <path id="5" class="fil0" d="M15254 7673c0,86 36,252 143,253 98,0 209,-131 249,-268l-13 -14c-58,128 -128,229 -208,228 -75,0 -105,-150 -109,-181 54,0 199,-43 199,-163 0,-69 -56,-125 -125,-125 -140,-1 -255,243 -314,392 0,-97 31,-250 93,-401 166,-99 287,-302 287,-431 0,-51 -18,-92 -44,-92 -99,0 -425,619 -426,912 0,65 1,132 49,132 17,0 38,-8 48,-25 16,-31 115,-415 281,-414 36,0 70,23 70,63 0,95 -138,134 -180,134zm150 -688c3,0 4,3 4,13 0,71 -86,236 -215,340 82,-188 183,-353 211,-353z"/>
   <path id="6" class="fil0" d="M16000 7575c-69,101 -208,305 -295,305 -25,0 -38,-17 -38,-55 0,-136 158,-396 290,-396 50,0 68,37 68,79 0,15 -3,34 -7,49 41,0 69,-14 69,-60 0,-63 -54,-105 -127,-105 -182,-1 -389,262 -390,429 0,79 45,116 104,117 69,0 131,-55 212,-163 -3,16 -4,30 -4,41 0,49 32,98 101,98 99,0 218,-103 277,-254l-13 -14c-85,148 -175,221 -225,221 -34,0 -48,-34 -48,-62 0,-67 82,-163 82,-195 0,-21 -39,-32 -56,-35z"/>
   <path class="fil0" d="M15128 11173c76,0 142,-40 202,-107 164,73 341,170 474,171 87,0 151,-42 192,-155 -39,20 -79,29 -130,29 -135,0 -315,-63 -483,-114 106,-159 189,-403 265,-627l29 0c301,1 438,-250 438,-418 1,-146 -103,-186 -176,-186 -184,-1 -298,254 -393,544 -60,-33 -104,-95 -104,-188 0,-33 6,-88 24,-113 -69,0 -113,80 -113,143 0,83 67,159 180,196 -76,230 -144,474 -230,625 -82,-22 -160,-39 -224,-39 -98,0 -133,36 -133,80 0,60 63,159 182,159zm824 -1362c34,0 65,22 65,92 0,144 -138,431 -358,433 93,-281 180,-525 293,-525zm-831 1309c-75,0 -128,-62 -128,-104 0,-22 15,-35 61,-35 58,1 131,24 207,56 -40,53 -88,83 -140,83z"/>
   <path id="1" class="fil0" d="M16617 10692c-90,131 -271,396 -384,396 -33,0 -49,-22 -49,-71 0,-177 205,-515 377,-515 65,0 89,48 89,102 0,20 -4,44 -10,64 53,0 90,-18 90,-78 0,-82 -71,-137 -165,-137 -237,-1 -506,341 -507,558 0,102 58,152 135,152 89,0 169,-71 275,-211 -3,20 -5,38 -5,53 0,64 41,128 131,128 129,0 284,-134 361,-331l-18 -18c-110,193 -226,287 -292,287 -44,0 -62,-44 -62,-80 0,-88 107,-212 107,-254 0,-27 -51,-42 -73,-45z"/>
   <path id="2" class="fil0" d="M17294 10462c-186,0 -400,240 -401,484 0,157 87,234 204,234 177,1 368,-159 453,-380l-24 -18c-79,202 -243,329 -387,329 -104,0 -133,-77 -133,-152 1,-178 171,-446 300,-446 31,0 40,17 40,46 0,55 -31,126 -67,144 16,20 34,27 52,27 57,1 92,-61 92,-132 0,-64 -29,-135 -129,-136z"/>
   <path id="3" class="fil0" d="M17748 10461c-124,-1 -264,373 -264,511 0,86 45,154 140,154 142,0 288,-114 360,-324l-16 -18c-105,208 -200,278 -282,278 -60,0 -89,-22 -89,-110 1,-171 191,-391 191,-451 0,-25 -18,-40 -40,-40zm97 -170c58,0 119,-52 119,-98 0,-42 -24,-56 -61,-57 -58,0 -133,44 -133,95 0,42 35,60 75,60z"/>
   <path class="fil1" d="M22587 8748c310,215 405,221 715,437 -174,288 -299,242 -426,232 -138,-12 -77,13 -180,12l-40 115c110,37 356,192 399,272 66,123 92,593 226,198 60,-177 -79,-243 136,-465 54,-56 79,-80 154,-80 -4,92 -4,36 36,160 8,27 10,33 17,57 34,107 120,615 204,643 278,95 186,-1239 201,-1283 60,-175 150,-259 233,-369l280 -353c109,-120 97,-122 85,-265 -362,-18 -692,609 -952,587 -80,-7 -322,-64 -558,-72l-294 -22c-121,-1 -179,40 -236,196z"/>
   <path class="fil1" d="M19303 12552c0,173 173,128 173,30 0,-173 -173,-128 -173,-30z"/>
   <path class="fil1" d="M10769 6971c0,173 173,129 173,31 0,-174 -173,-129 -173,-31z"/>
   <path class="fil1" d="M14211 13125c0,173 173,128 173,30 0,-173 -173,-128 -173,-30z"/>
   <path class="fil1" d="M17926 5966c86,0 148,18 148,-92 0,-110 -62,-91 -148,-91 -23,119 -23,64 0,183z"/>
   <path class="fil1" d="M18594 6057c86,0 149,19 149,-91 0,-110 -63,-92 -149,-92 -22,120 -22,64 0,183z"/>
   <path class="fil1" d="M20229 7824c0,110 62,91 148,91 23,-119 23,-63 0,-182 -86,0 -148,-19 -148,91z"/>
   <path class="fil1" d="M12032 5174c86,0 148,18 148,-92 0,-110 -62,-91 -148,-91 -23,119 -23,64 0,183z"/>
   <path class="fil1" d="M13542 13216c97,28 52,28 149,0 0,-106 15,-183 -74,-183 -90,0 -75,77 -75,183z"/>
   <path class="fil1" d="M12849 13094c73,384 272,-61 99,-61 -40,0 -79,37 -99,61z"/>
   <path class="fil1" d="M12056 10353l124 0c28,-144 79,-183 -124,-183 -22,119 -22,63 0,183z"/>
   <path class="fil1" d="M16613 6270c0,178 112,112 173,61 -55,-294 -173,-82 -173,-61z"/>
   <path class="fil1" d="M20278 8312c162,47 85,59 151,-28l23 -33c-112,-260 -171,-71 -174,61z"/>
   <path class="fil1" d="M18756 12857c0,85 120,249 173,-31 -154,-131 -173,25 -173,31z"/>
   <path class="fil1" d="M15523 12851c0,84 121,249 174,-31 -154,-132 -174,24 -174,31z"/>
   <path class="fil1" d="M13319 11602c0,95 45,86 100,121 4,-4 11,-18 13,-13l61 -78c0,-173 -174,-128 -174,-30z"/>
   <path class="fil1" d="M15226 5387c0,178 264,166 124,-91 -43,12 -124,33 -124,91z"/>
   <path class="fil1" d="M13617 11754c0,106 -16,183 74,183 57,0 74,-22 74,-92 0,-123 -76,-125 -148,-91z"/>
   <path class="fil1" d="M15499 5600c0,106 -15,183 74,183 57,0 74,-21 74,-91 0,-124 -76,-126 -148,-92z"/>
   <path class="fil1" d="M19947 12156c0,106 -15,183 74,183 57,0 75,-22 75,-92 0,-123 -77,-125 -149,-91z"/>
   <path class="fil1" d="M11735 5326c0,73 75,198 173,-30 -51,-66 -49,-70 -124,-92 -30,55 -49,54 -49,122z"/>
   <path class="fil1" d="M14805 12607c0,125 88,122 124,122 116,-253 -124,-255 -124,-122z"/>
   <path class="fil1" d="M14558 13033l0 153c97,27 51,27 148,0l0 -153c-72,-20 -77,-34 -148,0z"/>
   <path class="fil1" d="M11809 9957c0,179 142,56 173,30l-48 -123c-3,-4 -10,-12 -13,-15 -2,-3 -9,-9 -13,-14 -55,35 -99,26 -99,122z"/>
   <path class="fil1" d="M15870 12729l0 61c206,142 208,-153 99,-153 -48,0 -99,55 -99,92z"/>
   <path class="fil1" d="M14483 12455l0 60c206,143 208,-152 99,-152 -47,0 -99,54 -99,92z"/>
   <path class="fil1" d="M15944 6270c0,69 20,67 50,122 101,-29 100,-28 124,-152 -154,-132 -174,24 -174,30z"/>
   <path class="fil1" d="M16118 6636c0,134 76,112 148,91 0,-105 16,-182 -74,-182 -57,0 -74,21 -74,91z"/>
   <path class="fil1" d="M11487 9378c57,0 74,-21 74,-92 0,-110 -62,-91 -148,-91 -17,89 -35,183 74,183z"/>
   <path class="fil1" d="M15152 12698c0,70 17,92 74,92 90,0 75,-77 75,-183 -73,-21 -149,-42 -149,91z"/>
   <path class="fil1" d="M18248 5874c0,110 62,92 148,92 17,-89 35,-183 -74,-183 -57,0 -74,21 -74,91z"/>
   <path class="fil1" d="M18148 13033c0,134 77,113 149,92 0,-106 15,-183 -74,-183 -57,0 -75,21 -75,91z"/>
   <path class="fil1" d="M17232 5966c0,70 17,91 74,91 109,0 92,-93 75,-183 -86,0 -149,-18 -149,92z"/>
   <path class="fil1" d="M9828 12881c86,0 148,19 148,-91 0,-71 -17,-92 -74,-92 -109,0 -91,94 -74,183z"/>
   <path class="fil1" d="M17876 11967c57,0 74,-21 74,-91 0,-110 -62,-92 -148,-92 -17,90 -35,183 74,183z"/>
   <path class="fil1" d="M19535 10535c57,0 75,-21 75,-91 0,-110 -63,-91 -149,-91 -17,89 -34,182 74,182z"/>
   <path class="fil1" d="M12180 13094c0,134 76,112 149,92 0,-106 15,-183 -74,-183 -57,0 -75,21 -75,91z"/>
   <path class="fil1" d="M9481 12729c0,70 17,91 74,91 90,0 75,-77 75,-183 -73,-20 -149,-42 -149,92z"/>
   <path class="fil1" d="M13047 11388c0,71 17,92 74,92 90,0 75,-77 75,-183 -73,-21 -149,-42 -149,91z"/>
   <path class="fil1" d="M12527 13216c73,21 149,43 149,-91 0,-70 -18,-92 -75,-92 -89,0 -74,77 -74,183z"/>
   <path class="fil1" d="M12849 11236c57,0 74,-21 74,-91 0,-110 -62,-92 -148,-92 -17,89 -35,183 74,183z"/>
   <path class="fil1" d="M16613 12576c57,0 74,-21 74,-91 0,-110 -62,-91 -148,-91 -17,89 -35,182 74,182z"/>
   <path class="fil1" d="M20825 11682c67,35 137,71 164,-60 14,-69 2,-93 -54,-104 -88,-19 -88,60 -110,164z"/>
   <path class="fil1" d="M10794 7824c0,70 17,91 74,91 89,0 74,-76 74,-182 -72,-21 -148,-43 -148,91z"/>
   <path class="fil1" d="M19511 6453c0,134 76,112 148,92 0,-106 15,-183 -74,-183 -57,0 -74,21 -74,91z"/>
   <path class="fil1" d="M13914 12150l124 0c22,-119 22,-64 0,-183l-124 0c-23,119 -23,64 0,183z"/>
   <path class="fil1" d="M12329 4930c0,124 -16,10 34,80l40 42c264,-172 -74,-295 -74,-122z"/>
   <path class="fil1" d="M19213 6240c0,59 44,122 75,122 80,0 14,19 77,-57l22 -35c-111,-256 -174,-34 -174,-30z"/>
   <path class="fil1" d="M21142 11373c-12,58 18,129 48,135 78,16 10,21 87,-41l28 -29c-56,-273 -163,-68 -163,-65z"/>
   <path class="fil1" d="M19625 12400c0,58 44,121 74,121 80,0 14,20 78,-57l21 -34c-110,-257 -173,-34 -173,-30z"/>
   <path class="fil1" d="M16836 12363c84,120 30,92 74,92 191,0 55,-411 -74,-92z"/>
   <path class="fil1" d="M13864 13155c85,120 30,92 75,92 190,0 54,-411 -75,-92z"/>
   <path class="fil1" d="M21433 11185c59,134 11,95 55,104 186,39 136,-391 -55,-104z"/>
   <path class="fil1" d="M17480 12089c0,76 86,61 148,61 27,-140 35,-178 -123,-183 -16,82 -25,58 -25,122z"/>
   <path class="fil1" d="M10818 13003c106,91 74,82 174,0 -41,-216 -135,-206 -174,0z"/>
   <path class="fil1" d="M20219 12004c0,58 45,121 75,121 96,0 16,6 51,-27l37 -46c3,-4 7,-13 11,-18 -111,-257 -174,-34 -174,-30z"/>
   <path class="fil1" d="M18941 11023c0,99 98,75 149,61 0,-102 17,-162 -55,-182 -73,-21 -94,55 -94,121z"/>
   <path class="fil1" d="M17554 5874c74,172 43,129 173,92 -2,-163 -12,-126 -99,-183 0,0 -32,41 -37,46 -10,13 -36,44 -37,45z"/>
   <path class="fil1" d="M18453 12906c0,106 -15,183 74,183 57,0 74,-21 74,-92 0,-118 -88,-118 -148,-91z"/>
   <path class="fil1" d="M11512 13125c59,15 148,38 148,-92 0,-70 -17,-91 -74,-91 -89,0 -74,77 -74,183z"/>
   <path class="fil1" d="M10496 13003c60,15 149,38 149,-91 0,-71 -17,-92 -74,-92 -90,0 -75,77 -75,183z"/>
   <path class="fil1" d="M8812 12576c0,71 18,92 75,92 105,0 87,-110 74,-183 -86,0 -149,-19 -149,91z"/>
   <path class="fil1" d="M16415 6606c57,0 74,-22 74,-92 0,-110 -62,-91 -148,-91 -13,73 -31,183 74,183z"/>
   <path class="fil1" d="M19684 10139c0,110 62,92 148,92 13,-74 31,-183 -74,-183 -57,0 -74,21 -74,91z"/>
   <path class="fil1" d="M17183 12302l74 0c57,0 74,-21 74,-91 0,-70 -17,-92 -74,-92l-74 0 0 183z"/>
   <path class="fil1" d="M17802 13125c57,47 50,58 148,61 14,-72 42,-94 -22,-184l-27 -30c-83,54 -75,23 -99,153z"/>
   <path class="fil1" d="M8466 12515c49,65 48,70 123,92 108,-190 -19,-213 -24,-213 -76,0 -72,54 -99,121z"/>
   <path class="fil1" d="M22546 10077c-19,93 27,93 73,139 62,-48 67,-46 103,-134 -124,-161 -174,-11 -176,-5z"/>
   <path class="fil1" d="M14335 12363c9,-54 26,-183 -50,-183 -53,0 -115,26 -98,116 16,88 65,67 148,67z"/>
   <path class="fil1" d="M10744 7428c0,93 105,72 149,61 0,-102 17,-162 -55,-182 -73,-20 -94,55 -94,121z"/>
   <path class="fil1" d="M10868 6575c0,145 173,188 173,-30 -77,-54 -173,-38 -173,30z"/>
   <path class="fil1" d="M10150 12851c0,129 148,247 148,-61 -51,-15 -148,-38 -148,61z"/>
   <path class="fil1" d="M12255 10566c143,264 260,-92 99,-92 -62,0 -78,43 -99,92z"/>
   <path class="fil1" d="M11016 8586c0,133 76,112 149,91 0,-76 12,-183 -50,-183 -47,0 -99,55 -99,92z"/>
   <path class="fil1" d="M11239 5874c0,134 76,113 149,92 0,-77 12,-183 -50,-183 -48,0 -99,54 -99,91z"/>
   <path class="fil1" d="M20179 9043c0,133 76,112 149,91 0,-76 12,-183 -50,-183 -48,0 -99,55 -99,92z"/>
   <path class="fil1" d="M21743 10906c-11,58 19,129 49,135 106,22 108,-73 109,-164 -61,-13 -142,-45 -158,29z"/>
   <path class="fil1" d="M9159 12729c395,0 -78,-415 0,0z"/>
   <path class="fil1" d="M19189 10688l74 152c140,-91 104,-53 74,-213 -83,2 -108,12 -148,61z"/>
   <path class="fil1" d="M12676 4747c0,77 -12,183 49,183 48,0 99,-54 99,-91 0,-119 -88,-119 -148,-92z"/>
   <path class="fil1" d="M16465 13094c0,129 148,129 148,0 0,-108 -48,-91 -148,-91l0 91z"/>
   <path class="fil1" d="M18099 11693c0,129 149,129 149,0 0,-108 -49,-91 -149,-91l0 91z"/>
   <path class="fil1" d="M15796 13064c62,0 148,15 148,-61 0,-59 -44,-122 -74,-122 -105,0 -87,109 -74,183z"/>
   <path class="fil1" d="M14335 4839c0,99 88,157 173,0 -85,-158 -173,-100 -173,0z"/>
   <path class="fil1" d="M8144 12424c0,100 87,157 173,0 -86,-157 -173,-100 -173,0z"/>
   <path class="fil1" d="M20031 9408c0,7 53,280 173,0 0,0 -33,-40 -37,-45 -12,-14 -36,-44 -37,-46 -32,20 -99,42 -99,91z"/>
   <path class="fil1" d="M11066 6240c0,142 148,132 148,-30 0,-43 -33,-61 -74,-61l-74 0 0 91z"/>
   <path class="fil1" d="M14112 4839c35,0 49,-42 49,-92l0 -91 -74 0c-115,0 -107,183 25,183z"/>
   <path class="fil1" d="M18743 11358c109,0 91,-94 74,-183l-124 0c-12,63 -31,183 50,183z"/>
   <path class="fil1" d="M17133 13094c0,134 76,112 149,92l0 -153c-51,-14 -149,-38 -149,61z"/>
   <path class="fil1" d="M14954 13125c109,0 91,-94 74,-183l-124 0c-12,63 -31,183 50,183z"/>
   <path class="fil1" d="M11165 13003c0,147 245,146 99,-122 -55,36 -99,27 -99,122z"/>
   <path class="fil1" d="M12502 10870c0,109 49,92 149,92 0,-309 -149,-184 -149,-92z"/>
   <path class="fil1" d="M11190 8951c0,109 48,92 148,92 0,-309 -148,-184 -148,-92z"/>
   <path class="fil1" d="M20253 8616l61 138c3,4 9,10 14,14 208,-135 27,-213 24,-213 -40,0 -78,37 -99,61z"/>
   <path class="fil1" d="M22309 10494c192,101 218,-141 61,-174 -50,76 -36,53 -61,174z"/>
   <path class="fil1" d="M13344 4778c212,55 185,-183 25,-183 -33,85 -25,59 -25,183z"/>
   <path class="fil1" d="M16192 12637l124 92c107,-190 -20,-214 -25,-214 -76,0 -72,55 -99,122z"/>
   <path class="fil1" d="M16786 13094c0,96 45,87 99,122l75 -152c-154,-132 -174,24 -174,30z"/>
   <path class="fil1" d="M14954 5204c154,132 173,-24 173,-30 0,-95 -44,-87 -99,-122l-74 152z"/>
   <path class="fil1" d="M13196 13125c0,68 19,67 49,122l124 -92c-110,-256 -173,-34 -173,-30z"/>
   <path class="fil1" d="M11462 5539l74 153c209,-136 28,-214 25,-214 -40,0 -79,37 -99,61z"/>
   <path class="fil1" d="M17009 6179c35,0 50,-41 50,-91 0,-71 -17,-92 -74,-92 -116,0 -108,183 24,183z"/>
   <path class="fil1" d="M19046 12727c0,129 148,129 148,0 0,-129 -148,-129 -148,0z"/>
   <path class="fil1" d="M18396 11480c0,129 149,129 149,0 0,-129 -149,-129 -149,0z"/>
   <path class="fil1" d="M16118 13064c0,129 148,129 148,0 0,-129 -148,-129 -148,0z"/>
   <path class="fil1" d="M17480 13125c0,129 148,129 148,0 0,-129 -148,-129 -148,0z"/>
   <path class="fil1" d="M11611 9621c0,130 148,130 148,0 0,-129 -148,-129 -148,0z"/>
   <path class="fil1" d="M22041 10688c-26,126 120,156 146,30 26,-127 -120,-157 -146,-30z"/>
   <path class="fil1" d="M19882 9804c0,129 149,129 149,0 0,-129 -149,-129 -149,0z"/>
   <path class="fil1" d="M18916 6088c0,129 149,129 149,0 0,-129 -149,-129 -149,0z"/>
   <path class="fil1" d="M20130 7428c0,129 148,129 148,0 0,-129 -148,-129 -148,0z"/>
   <path class="fil1" d="M10893 8220c0,129 148,129 148,0 0,-129 -148,-129 -148,0z"/>
   <path class="fil1" d="M20522 11806c-26,126 119,156 145,30 26,-127 -119,-157 -145,-30z"/>
   <path class="fil1" d="M19981 7063c0,129 149,129 149,0 0,-130 -149,-130 -149,0z"/>
   <path class="fil1" d="M12998 4747c0,129 148,129 148,0 0,-129 -148,-129 -148,0z"/>
   <path class="fil1" d="M14657 4991c0,129 148,129 148,0 0,-129 -148,-129 -148,0z"/>
   <path class="fil1" d="M15771 5935c0,129 149,129 149,0 0,-129 -149,-129 -149,0z"/>
   <path class="fil1" d="M15226 12942c0,129 149,129 149,0 0,-129 -149,-129 -149,0z"/>
   <path class="fil1" d="M13691 4778l124 0c48,-255 -173,-258 -124,0z"/>
   <path class="fil1" d="M19783 6819l124 0c48,-255 -173,-258 -124,0z"/>
   <path class="fil1" d="M11858 13155l124 0c48,-254 -173,-258 -124,0z"/>
   <path class="fil0" d="M16098 8973c0,19 -5,44 -13,75 -8,30 -23,58 -45,83 -22,25 -52,37 -89,37 -43,0 -86,-12 -129,-33 -54,55 -121,82 -200,81 -50,0 -90,-13 -120,-39 -29,-27 -44,-62 -43,-107 0,-36 11,-67 34,-93 23,-26 48,-47 76,-62 27,-15 58,-30 92,-44 2,-38 12,-78 30,-118 18,-41 41,-74 68,-101 27,-26 55,-40 85,-39 18,0 33,5 44,15 11,11 17,26 17,45 -1,37 -21,75 -60,114 -40,40 -86,74 -138,102 0,39 11,75 32,109 21,34 48,61 81,82 12,-13 24,-30 34,-49 10,-17 18,-35 26,-54 8,-20 13,-33 15,-42 1,-4 2,-9 3,-15 1,-6 3,-11 5,-14 1,-3 3,-5 6,-5 4,0 7,3 11,9 3,7 4,12 4,18 0,14 -5,35 -15,64 -10,29 -21,54 -33,75 -8,15 -15,26 -21,35 35,14 68,22 99,22 35,0 62,-13 80,-41 18,-27 32,-60 41,-99 2,-6 4,-12 6,-16 1,-4 3,-6 5,-6 3,0 5,1 8,3 3,3 4,5 4,8zm-230 -299c0,-7 -2,-13 -6,-18 -4,-5 -10,-7 -19,-7 -21,0 -43,12 -64,36 -21,24 -39,53 -53,85 -14,33 -21,60 -21,81 37,-21 73,-49 109,-84 35,-35 53,-66 54,-93zm-83 438c-34,-24 -61,-53 -84,-87 -22,-35 -36,-72 -39,-112 -2,1 -15,6 -40,16 -25,10 -49,27 -71,53 -22,26 -34,54 -34,86 0,30 9,54 28,72 18,17 47,26 85,27 32,0 61,-5 85,-15 25,-10 48,-23 70,-40z"/>
   <path id="1" class="fil2 str0" d="M16098 8973c0,19 -5,44 -13,75 -8,30 -23,58 -45,83 -22,25 -52,37 -89,37 -43,0 -86,-12 -129,-33 -54,55 -121,82 -200,81 -50,0 -90,-13 -120,-39 -29,-27 -44,-62 -43,-107 0,-36 11,-67 34,-93 23,-26 48,-47 76,-62 27,-15 58,-30 92,-44 2,-38 12,-78 30,-118 18,-41 41,-74 68,-101 27,-26 55,-40 85,-39 18,0 33,5 44,15 11,11 17,26 17,45 -1,37 -21,75 -60,114 -40,40 -86,74 -138,102 0,39 11,75 32,109 21,34 48,61 81,82 12,-13 24,-30 34,-49 10,-17 18,-35 26,-54 8,-20 13,-33 15,-42 1,-4 2,-9 3,-15 1,-6 3,-11 5,-14 1,-3 3,-5 6,-5 4,0 7,3 11,9 3,7 4,12 4,18 0,14 -5,35 -15,64 -10,29 -21,54 -33,75 -8,15 -15,26 -21,35 35,14 68,22 99,22 35,0 62,-13 80,-41 18,-27 32,-60 41,-99 2,-6 4,-12 6,-16 1,-4 3,-6 5,-6 3,0 5,1 8,3 3,3 4,5 4,8zm-230 -299c0,-7 -2,-13 -6,-18 -4,-5 -10,-7 -19,-7 -21,0 -43,12 -64,36 -21,24 -39,53 -53,85 -14,33 -21,60 -21,81 37,-21 73,-49 109,-84 35,-35 53,-66 54,-93zm-83 438c-34,-24 -61,-53 -84,-87 -22,-35 -36,-72 -39,-112 -2,1 -15,6 -40,16 -25,10 -49,27 -71,53 -22,26 -34,54 -34,86 0,30 9,54 28,72 18,17 47,26 85,27 32,0 61,-5 85,-15 25,-10 48,-23 70,-40z"/>
  </g>
  <path class="fil3" d="M7693 2530l7954 0c23,0 42,18 42,41l0 7934c0,23 -19,41 -42,41l-7954 0c-12,0 -21,-9 -21,-20l0 -7976c0,-11 9,-20 21,-20z"/>
 </g>
</svg>
