<?xml version="1.0" standalone="no"?>
<!DOCTYPE svg PUBLIC "-//W3C//DTD SVG 20010904//EN"
 "http://www.w3.org/TR/2001/REC-SVG-20010904/DTD/svg10.dtd">
<svg version="1.0" xmlns="http://www.w3.org/2000/svg"
 width="700.000000pt" height="700.000000pt" viewBox="0 0 700.000000 700.000000"
 preserveAspectRatio="xMidYMid meet">
<metadata>
Created by potrace 1.11, written by Peter Selinger 2001-2013
</metadata>
<g transform="translate(0.000000,700.000000) scale(0.100000,-0.100000)"
fill="#000000" stroke="none">
<path d="M3969 5167 c-51 -19 -79 -41 -111 -88 -113 -169 43 -457 326 -602
l69 -36 66 33 c145 74 266 191 325 316 38 82 47 187 22 255 -21 53 -81 110
-132 124 -71 20 -167 -10 -240 -73 l-38 -33 -51 38 c-87 66 -171 89 -236 66z"/>
<path d="M2175 4434 c-273 -40 -458 -157 -588 -371 -56 -91 -90 -189 -152
-428 -138 -540 -268 -874 -422 -1093 -106 -151 -269 -287 -421 -352 -70 -30
-210 -70 -246 -70 -74 -1 169 -54 389 -85 420 -58 846 -65 1197 -19 l47 6 3
-98 3 -99 52 -3 52 -3 3 112 3 113 80 18 c44 10 95 21 113 24 l32 7 0 -137 0
-137 53 3 52 3 5 154 5 154 90 37 c210 86 367 185 513 324 197 188 331 419
398 689 32 130 43 353 24 496 l-13 96 167 299 c92 164 164 301 161 304 -3 3
-148 -26 -322 -64 l-318 -70 -95 38 c-251 102 -455 148 -680 153 -85 2 -168 1
-185 -1z m725 -287 c95 -50 108 -170 26 -246 -37 -35 -127 -41 -174 -12 -99
63 -93 209 12 261 53 26 83 25 136 -3z"/>
<path d="M5156 4159 c-143 -14 -332 -70 -489 -144 l-57 -28 -251 57 c-138 32
-253 55 -256 53 -2 -3 56 -121 130 -264 l135 -258 -10 -70 c-13 -91 -4 -310
16 -404 100 -460 401 -789 860 -942 l96 -32 0 -153 0 -154 55 0 55 0 0 140 c0
156 -6 147 77 131 26 -6 69 -13 95 -16 l47 -6 3 -122 3 -122 55 0 55 0 3 118
3 117 167 0 c160 0 370 17 517 40 88 14 359 70 364 76 4 4 0 6 -89 28 -216 56
-387 209 -519 466 -98 190 -158 371 -267 795 -53 208 -73 267 -115 354 -129
258 -357 372 -683 340z m-190 -215 c67 -32 94 -119 55 -178 -42 -64 -109 -82
-168 -46 -44 26 -66 63 -66 111 0 49 26 87 74 111 42 22 62 22 105 2z"/>
</g>
</svg>
